# xmcd CD database file
#
# Track frame offsets:
#	150
#	26271
#	46149
#	65598
#	84065
#	104798
#	125134
#	148700
#	166626
#	181921
#	204282
#	225526
#
# Disc length: 3330 seconds
#
# Revision: 0
# Processed by: cddbd v1.5.2PL0 Copyright (c) Steve Scherf et al.
# Submitted via: CDex 2.09
#
DISCID=960d000c
DTITLE=Jean-Philippe Bordier Trio - Hipster's Alley
DYEAR=2016
DGENRE=Jazz
TTITLE0=Hipster's Alley
TTITLE1=Havana Twist
TTITLE2=Riding on a cloud
TTITLE3=Dr Oligo
TTITLE4=Heaven's Bells
TTITLE5=Mars' Walts
TTITLE6=Quicky Boy
TTITLE7=Pick Me Up
TTITLE8=Colors of Jupiter
TTITLE9=Blazing Sun
TTITLE10=Seventie's Road
TTITLE11=Korsika
EXTD=YEAR: 2016
EXTT0=
EXTT1=
EXTT2=
EXTT3=
EXTT4=
EXTT5=
EXTT6=
EXTT7=
EXTT8=
EXTT9=
EXTT10=
EXTT11=
PLAYORDER=
